<svg width="94" height="95" xmlns="http://www.w3.org/2000/svg"><g fill="none" fill-rule="evenodd"><path d="M47.1 94.2C21.3 94.2.3 73.2.3 47.4.3 21.6 21.3.6 47.1.6c25.8 0 46.8 21 46.8 46.8 0 25.8-21 46.8-46.8 46.8zm0-90.9C22.8 3.3 3 23.1 3 47.4s19.8 44.1 44.1 44.1 44.1-19.8 44.1-44.1S71.4 3.3 47.1 3.3z" opacity=".172" fill="#78CFFF" fill-rule="nonzero"/><g fill="#FFF"><path d="M54.9 59.1H12.1v-37h41.6v2.3H14.4v32.4h40.5zm23.1 0h-5.8v-2.3h3.5V24.4h-15v-2.3H78z"/><path d="M30.6 41.8h-3.5v-2.3h3.5zm34.7 0h-3.5v-2.3h3.5z"/><path d="M45 48.7c-2 0-3.9-.9-5.4-2.4-1.4-1.5-2.2-3.5-2.2-5.7 0-2.1.8-4.2 2.2-5.7 1.4-1.5 3.3-2.4 5.3-2.4s3.9.9 5.3 2.4 2.2 3.5 2.2 5.7c.2 4.5-3.2 8.1-7.4 8.1zm0-13.9c-1.4 0-2.7.6-3.6 1.7-1 1.1-1.6 2.6-1.6 4.1 0 1.6.6 3 1.6 4.1 1 1.1 2.3 1.7 3.6 1.7 2.9 0 5.2-2.6 5.2-5.8 0-1.6-.6-3-1.6-4.1a4.6 4.6 0 00-3.6-1.7z" fill-rule="nonzero"/><path d="M21.3 53.4v-1.2c0-.9-.3-2.3-2.3-2.3h-1.2V31.3H19c1.3 0 2.3-1 2.3-2.3v-1.2h32.4v2.3H23.5c-.4 1.6-1.7 2.9-3.3 3.3v14.2c1.8.4 3 1.6 3.3 3.3h30.2v2.3l-32.4.2zm50.9-12.8h-2.3v-7c-1.7-.4-3-1.7-3.4-3.4h-5.9v-2.3h8.1v1.2c0 1.5.9 2.4 2.3 2.4h1.2v9.1zM58.3 21H56v-4.6h2.3zm0 8.1H56v-4.6h2.3zm0 8.1H56v-4.6h2.3zm0 8H56v-4.6h2.3zm0 8.1H56v-4.6h2.3zm11.6 29.6c-1.3 0-2.7-.5-3.7-1.5l-11-11 1.6-1.6 11 11c1.1 1.1 3 1.1 4.1 0l1.2-1.2c.6-.6.9-1.3.9-2.1s-.3-1.5-.9-2.1c-1.1-1.1-3-1.1-4.1 0l-1.4 1.4-6.6-6.6 1.6-1.6 5 5c2.1-1.8 5.2-1.7 7.2.2 1 1 1.5 2.3 1.5 3.7 0 1.4-.5 2.7-1.5 3.7l-1.2 1.2c-1 1-2.4 1.5-3.7 1.5z"/><path d="M42.1 82.9c-1.3 0-2.7-.5-3.7-1.5l-1.2-1.2c-1-1-1.5-2.3-1.5-3.7 0-1.4.5-2.7 1.5-3.7 2-2 5.1-2 7.2-.2l7.3-7.3 1.6 1.6-8.9 8.9-1.4-1.4c-1.1-1.1-3-1.1-4.1 0-.6.6-.9 1.3-.9 2.1s.3 1.5.9 2.1l1.2 1.2c1.1 1.1 3 1.1 4.1 0l22.5-22.5c2-2 3.2-4.8 3.2-7.8V48L59.1 58.8l-1.6-1.6 14.7-14.8v7c0 3.6-1.4 6.9-3.9 9.4L45.8 81.3c-1 1.1-2.3 1.6-3.7 1.6z"/><path d="M55.3 62.1l-3.4-3.4 1.6-1.6 3.4 3.4zm-5.9 3.6l-6.9-6.9 1.6-1.6 6.9 6.9z"/></g></g></svg>