<svg width="94" height="95" xmlns="http://www.w3.org/2000/svg"><g fill="none" fill-rule="evenodd"><path d="M46.9 94.5C21.1 94.5.1 73.5.1 47.7.1 21.9 21.1.9 46.9.9c25.8 0 46.8 21 46.8 46.8 0 25.8-20.9 46.8-46.8 46.8zm0-90.9C22.6 3.6 2.8 23.4 2.8 47.7s19.8 44.1 44.1 44.1S91 72 91 47.7 71.2 3.6 46.9 3.6z" opacity=".172" fill="#78CFFF" fill-rule="nonzero"/><path d="M45.6 74c-1 0-2.4-.4-3.8-1.8l-2-2-15.7-15.8c-1-.8-2.7-2.6-3.3-4.6l-6.4-6.4L28.8 29l9.8 9.8h12.8L68 55.5c1.3 1.8 1.6 3.9.7 5.8-.8 1.8-2.6 3.1-4.6 3.5-.3 1.1-1.1 2.3-2.3 3.2-1.4 1-3 1.3-4.6.9-.8 1-1.9 1.8-3.2 2.3-1.2.4-2.5.4-3.7 0-1.2 1.6-2.6 2.6-4.2 2.8h-.5zM17.7 43.4l5.2 5.2.1.3c.4 1.4 1.8 3.1 2.6 3.7l.2.1 17.7 17.9c.8.8 1.6 1.2 2.4 1.1 1-.1 2.1-1.1 3-2.5l.6-1 1 .5c1.1.6 2.2.4 2.9.2 1.1-.3 2-1.1 2.4-2l.5-1 1 .5c1.4.7 2.5.2 3.2-.3 1-.7 1.5-1.8 1.4-2.2l-.2-1.2 1.3-.1c1.6-.1 3-1 3.6-2.3.5-1.1.4-2.3-.4-3.4L50.4 41.1H37.6l-8.8-8.8-11.1 11.1z" fill="#FFF" fill-rule="nonzero"/><path d="M64.8 31.8s-4.7 4.5-5.8 4.6c-1.4.2-7.7-2.7-9-3.1-1.3-.3-13.9 3.7-14.9 5.2-.9 1.5 2.8 5.1 6.4 4.7 3.6-.4 9-2.4 10.5-.8 2.5 2.5 9.9 10.3 13.4 13.3 2.9 2.6 7.9-6.3 9.2-7.7 0 0 2.3-1.7 4-2.9L64.8 31.8z" fill="#040B28"/><path d="M66.7 57.4c-.7 0-1.4-.3-2-.8-2.6-2.3-7.2-7-10.6-10.5-1.2-1.2-2.2-2.2-2.8-2.9-.7-.7-4 .1-6 .5-1.2.3-2.4.5-3.5.7-2.9.4-6-1.5-7.2-3.4-1-1.5-.6-2.5-.3-3 1.3-2.1 14.6-6.1 16.2-5.8.5.1 1.3.5 2.8 1 1.6.7 5 2 5.8 2 .5-.2 3.1-2.4 5.2-4.3l.8-.8 15.6 15.2-1.1.8c-1.4 1-3.4 2.5-3.8 2.8-.2.3-.6.8-1 1.4-2.4 3.4-4.9 6.7-7.4 7-.5.1-.6.1-.7.1zM50 40.7c1.2 0 2.2.2 2.9.9l2.9 2.9c3.4 3.4 7.9 8.1 10.5 10.4.2.1.3.2.5.2 1.7-.2 4.6-4.3 5.8-6.1.5-.8.9-1.4 1.2-1.7l.2-.2s1.4-1 2.8-2.1l-12-11.8c-2.9 2.6-4.7 4-5.6 4.2-1.1.2-3-.5-7-2.1-1-.4-2.1-.9-2.4-.9-1.5-.1-12.2 3.4-13.6 4.7 0 .2.2.7.8 1.3 1 1 2.8 1.9 4.4 1.7 1-.1 2.1-.4 3.3-.6 1.9-.4 3.8-.8 5.3-.8z" fill="#FFF" fill-rule="nonzero"/><path fill="#FFF" d="M49.1 70.5l-5.4-5.4 1.6-1.6 5.4 5.4zm6.9-2.3l-7.9-7.9 1.6-1.6 7.9 7.9zm6.2-3.6L53 55.4l1.6-1.6 9.2 9.2z"/><path fill="#040B28" d="M82.2 43.4l-5.8 5.8L60.2 33l5.8-5.8z"/><path d="M76.4 50.8L58.5 32.9l7.4-7.4 17.9 17.9-7.4 7.4zM61.8 32.9l14.6 14.6 4.2-4.2L66 28.8l-4.2 4.1z" fill="#FFF" fill-rule="nonzero"/><path fill="#FFF" d="M67.5 36.1l-2.3-2.3 1.6-1.6 2.3 2.3z"/><path fill="#040B28" d="M12.6 43.4l5.8 5.8L34.6 33l-5.8-5.8z"/><path d="M18.4 50.8L11 43.4l17.9-17.9 7.4 7.4-17.9 17.9zm-4.2-7.4l4.2 4.2L33 33l-4.2-4.2-14.6 14.6z" fill="#FFF" fill-rule="nonzero"/><path fill="#FFF" d="M27.3 36.1l-1.6-1.6 2.3-2.3 1.6 1.6zm11.6 46c-14.1-3.3-25-14.5-27.7-28.7l2.3-.4c2.6 13.3 12.8 23.9 26 26.9l-.6 2.2zm16.5 0l-.5-2.3c12.9-3 22.7-12.8 25.7-25.7l2.3.5c-3.2 13.8-13.7 24.3-27.5 27.5zM22.1 23l-1.7-1.6c8.9-9.5 22.3-13.6 35-10.7C62.6 12.4 69 16.1 74 21.4L72.3 23c-4.7-5-10.7-8.5-17.4-10-11.9-2.8-24.5 1.1-32.8 10z"/><path d="M34.1 69.8c.9.9 2.4.9 3.3 0l2.5-2.5c1-1 .7-2.6-.4-3.7s-2.7-1.4-3.7-.4c1-1 .7-2.6-.4-3.7s-2.7-1.4-3.7-.4c1-1 .7-2.6-.4-3.7s-2.7-1.4-3.7-.4c1-1 .7-2.6-.4-3.7s-2.7-1.4-3.7-.4L21 53.4c-.9.9-.9 2.4 0 3.3l13.1 13.1z" fill="#040B28"/><path d="M35.7 71.7c-.9 0-1.8-.3-2.5-1L20.1 57.6c-.7-.7-1-1.5-1-2.5 0-.9.4-1.8 1-2.5l2.5-2.5c1.4-1.4 3.7-1.2 5.3.4.8.8 1.3 1.8 1.3 2.8 1 .1 1.9.5 2.8 1.3.8.8 1.3 1.8 1.3 2.8 1 .1 1.9.5 2.8 1.3.8.8 1.3 1.8 1.3 2.8h.2c.9.1 1.8.6 2.6 1.3 1.6 1.6 1.8 3.9.4 5.3l-2.5 2.5c-.6.7-1.5 1.1-2.4 1.1zm-.8-2.7c.5.5 1.2.5 1.6 0l2.5-2.5c.5-.5.2-1.5-.4-2.1-.4-.4-.8-.6-1.2-.7-.3 0-.6 0-.8.3L35 62.4c.5-.5.2-1.5-.4-2.1-.6-.6-1.5-.9-2.1-.4l-1.6-1.6c.5-.5.2-1.5-.4-2.1-.6-.6-1.5-.9-2-.4l-1.6-1.6c.5-.5.2-1.5-.4-2.1-.6-.6-1.5-.9-2.1-.4l-2.5 2.5c-.2.2-.3.5-.3.8 0 .3.1.6.3.8l13 13.2z" fill="#FFF" fill-rule="nonzero"/><path fill="#FFF" d="M39.6 29.1l-2.3-2.3 1.6-1.6 2.3 2.3zm4.4-2.7l-1.2-3.5 2.2-.7 1.2 3.5zm6.8 0l-2.2-.7 1.2-3.5 2.2.7zm4.4 2.7l-1.6-1.6 2.3-2.3 1.6 1.6z"/></g></svg>