<svg width="95" height="95" xmlns="http://www.w3.org/2000/svg"><g fill="none" fill-rule="evenodd"><path d="M47.3 94.2C21.5 94.2.5 73.2.5 47.4.5 21.6 21.5.6 47.3.6c25.8 0 46.8 21 46.8 46.8 0 25.8-21 46.8-46.8 46.8zm0-90.9C23 3.3 3.2 23.1 3.2 47.4S23 91.5 47.3 91.5s44.1-19.8 44.1-44.1S71.6 3.3 47.3 3.3z" opacity=".172" fill="#78CFFF" fill-rule="nonzero"/><g fill="#FFF"><path d="M71.1 68.9H38.4v-2.3h32.7zm6.7 0h-4.5v-2.3h2.3v-2.3h2.3v4.6zm0-6.8h-2.3V29.4h2.3zm0-34.9h-2.3v-2.3h-2.3v-2.3h4.5v4.6zm-6.7-2.3H23.8v-2.3h47.3zm-51.8 2.3H17v-4.5h4.5V25h-2.3v2.2zm3.3 41.7H17V29.5h2.3v37.2h3.4v2.2zM58 64.4c-1.3 0-2.4-.7-3.3-1.3-.8-.5-1.5-.9-2.1-.9-.6 0-1.4.4-2.1.9-.9.6-2 1.3-3.3 1.3-1.3 0-2.4-.7-3.3-1.3-.8-.5-1.5-.9-2.1-.9h-1.1v-2.3h1.1c1.3 0 2.4.7 3.3 1.3.8.5 1.5.9 2.1.9.6 0 1.4-.4 2.1-.9.9-.6 2-1.3 3.3-1.3 1.3 0 2.4.7 3.3 1.3.8.5 1.5.9 2.1.9.6 0 1.4-.5 2.1-.9.9-.6 2-1.3 3.3-1.3 1 0 2.3.5 3.8 1.1 1.1.4 3.2 1.2 3.8 1.1.1-.6-.7-2.1-1.1-3-.6-1.3-1.1-2.5-1.1-3.4 0-1.2.7-2.3 1.3-3.1.5-.7.9-1.3.9-1.9 0-.5-.4-1.1-.9-1.7-.6-.9-1.3-1.8-1.3-3.1s.7-2.2 1.3-3.1c.5-.6.9-1.2.9-1.7s-.4-1.2-.9-1.9c-.6-.9-1.3-1.9-1.3-3.1 0-1 .5-2.1 1.1-3.4.4-.9 1.2-2.5 1.1-3.1-.6-.1-2.7.7-3.8 1.2-1.5.6-2.8 1.1-3.8 1.1-1.3 0-2.4-.7-3.3-1.4-.7-.5-1.5-1-2.1-1-.6 0-1.3.5-2.1 1-.9.6-2 1.4-3.3 1.4-1.3 0-2.4-.7-3.3-1.4-.7-.5-1.5-1-2.1-1-.6 0-1.3.5-2.1 1-1 .6-2 1.4-3.3 1.4-1.3 0-2.4-.7-3.3-1.4-.7-.5-1.5-1-2.1-1-.6 0-1.3.5-2.1 1-.9.6-2 1.4-3.3 1.4-1 0-2.2-.5-3.6-1.2-1-.4-3-1.3-3.4-1.1-.2.5.7 2.2 1.1 3.1.6 1.3 1.1 2.4 1.1 3.4 0 1.3-.7 2.3-1.3 3.1-.5.7-.9 1.3-.9 1.8 0 .4.3.8.8 1.4l-1.7 1.5c-.6-.7-1.4-1.6-1.4-2.9 0-1.3.7-2.3 1.4-3.1.5-.7.9-1.3.9-1.8 0-.4-.5-1.5-.9-2.4-1-2.1-2.1-4.4-.5-5.7 1.3-1.3 3.6-.3 5.9.7 1 .4 2.2 1 2.7 1 .6 0 1.3-.5 2.1-1 .9-.6 2-1.4 3.3-1.4 1.3 0 2.4.7 3.3 1.4.7.5 1.5 1 2.1 1 .6 0 1.3-.5 2.1-1 .9-.6 2-1.4 3.3-1.4 1.3 0 2.4.7 3.3 1.4.7.5 1.5 1 2.1 1 .6 0 1.3-.5 2.1-1 .9-.6 2-1.4 3.3-1.4 1.3 0 2.4.7 3.3 1.4.7.5 1.5 1 2.1 1 .5 0 1.9-.5 3-1 2.6-1 5-2 6.3-.6 1.3 1.3.3 3.4-.7 5.5-.4.9-.9 2-.9 2.5s.4 1.2.9 1.9c.6.9 1.3 1.9 1.3 3.1 0 1.3-.7 2.2-1.3 3.1-.5.6-.9 1.2-.9 1.7s.4 1.1.9 1.7c.6.8 1.3 1.8 1.3 3.1 0 1.2-.7 2.3-1.3 3.1-.5.7-.9 1.3-.9 1.9 0 .5.5 1.6.9 2.5 1 2.1 1.9 4.3.6 5.6-1.2 1.3-3.6.4-6.2-.6-1.1-.4-2.4-.9-3-.9-.6 0-1.4.5-2.1.9-1.1.5-2.2 1.2-3.5 1.2z"/><path d="M35 75.6c-.2 0-.5-.1-.7-.2l-3.8-2.9-3.8 2.9c-.3.3-.8.3-1.2.1-.4-.2-.6-.6-.6-1V57.6h2.3v14.6l2.7-2c.4-.3 1-.3 1.4 0l2.7 2V57.6h2.3v16.9c0 .4-.2.8-.6 1-.3.1-.5.1-.7.1z"/><path d="M30.5 59.9c-5 0-9-4-9-9s4-9 9-9 9 4 9 9c0 4.9-4 9-9 9zm0-15.8c-3.7 0-6.8 3-6.8 6.8s3 6.8 6.8 6.8c3.7 0 6.8-3 6.8-6.8s-3.1-6.8-6.8-6.8z" fill-rule="nonzero"/><path d="M60.9 41.8h-18v-2.3h18zm0 4.5h-18V44h18zm-5.6 4.5H42.9v-2.3h12.4z"/></g></g></svg>