<svg width="95" height="95" xmlns="http://www.w3.org/2000/svg"><g fill="none" fill-rule="evenodd"><path d="M47.6 94.5C21.8 94.5.8 73.5.8 47.7.8 21.9 21.8.9 47.6.9c25.8 0 46.8 21 46.8 46.8 0 25.8-21 46.8-46.8 46.8zm0-90.9C23.3 3.6 3.5 23.4 3.5 47.7s19.8 44.1 44.1 44.1S91.7 72 91.7 47.7 71.9 3.6 47.6 3.6z" opacity=".172" fill="#78CFFF" fill-rule="nonzero"/><g fill="#FFF"><path d="M53.5 20.3H29.2V18h24.3zM35 55.1H14.2v-2.3H35zm-8.1-34.8h-2.3V18h2.3zm-4.7 0h-2.3V18h2.3z"/><path d="M74.9 45.5c-1.8 0-3.5-.6-4.9-1.8-1.5-1.3-2.4-3.1-2.6-5.1-.1-2 .5-3.9 1.8-5.4 1.3-1.5 3.1-2.4 5.1-2.6 2-.1 3.9.5 5.4 1.8 1.5 1.3 2.4 3.1 2.6 5.1.1 2-.5 3.9-1.8 5.4-1.3 1.5-3.1 2.4-5.1 2.6h-.5zM75 33h-.4c-1.4.1-2.6.7-3.5 1.8-.9 1-1.3 2.4-1.2 3.7.1 1.4.7 2.6 1.8 3.5 1 .9 2.4 1.3 3.7 1.2 1.4-.1 2.6-.7 3.5-1.8.9-1 1.3-2.4 1.2-3.7-.1-1.4-.7-2.6-1.8-3.5-.9-.8-2.1-1.2-3.3-1.2z" fill-rule="nonzero"/><path d="M44.7 79.3l-.7-2.2 17.2-5.5c.5-.2 1-.7 1.2-1.2.2-.6.1-1.2-.2-1.7L55 58l7-7.1.8 1.3c1.1 1.8 2.9 4.4 3.9 5.2h7.9c2.3 0 3.9-1.5 4.8-2.6l-10.5-1.6-6.4-14c-1.7-1.6-5.9-5.3-8-6.1H39.1c.9 1.4 2.4 2.3 4.4 2.6l9 1.1 4.5 6.1-8.2 8.5-.3.4c-3.1 3.9-1.6 7.1 2.4 11.5l5.3 5.5-12.9 7.5-1.2-2 10.3-6-3.3-3.4c-3.6-4-7-8.8-2.5-14.5l.4-.5 6.9-7.1-2.8-3.7-8-1c-3.5-.5-6.1-2.7-7-5.8l-.4-1.5 19.2.1c2.9.9 8.6 6.2 9.2 6.8l.2.2 6 13.2 12.6 2-.7 1.4c-.1.2-2.7 5.3-7.8 5.3h-8.6l-.3-.2c-1.2-.8-3-3.3-4.1-4.9l-3.6 3.7 6.1 9c.8 1.1.9 2.5.5 3.8-.4 1.3-1.4 2.3-2.6 2.7l-17.1 5.4z"/><path d="M22.5 77.6l-1-2.1 22.4-10.8 1 2.1zm-1.8-2.7L19.4 73l22.2-15.7 1.3 1.9z"/><path d="M32.5 49.7L23 32.5l13.2-7.3 9.5 17.2-13.2 7.3zm-6.4-16.3l7.3 13.2 9.2-5.1-7.3-13.2-9.2 5.1z" fill-rule="nonzero"/></g></g></svg>